<?xml version="1.0" encoding="utf-8"?>
<!-- Generator: Adobe Illustrator 21.0.0, SVG Export Plug-In . SVG Version: 6.00 Build 0)  -->
<svg version="1.1" id="Layer_1" xmlns="http://www.w3.org/2000/svg" xmlns:xlink="http://www.w3.org/1999/xlink" x="0px" y="0px"
	 viewBox="0 0 48 60" style="enable-background:new 0 0 48 60;" xml:space="preserve">
<g>
	<g>
		<g>
			<path d="M23.6,34.9c-1.6-0.5-2.3-1.7-2.7-3.3c-0.6-2.4,2-3.2,3.9-3.3c2.1-0.1,2.9,2.8,2.6,4.3c-0.4,1.6-2,2.5-3.5,2.7
				c-0.8,0.1-0.8,1.4,0,1.3c2.4-0.3,4.3-1.7,4.8-4.1c0.5-2.2-1.1-4.7-3.2-5.4c-1.3-0.4-2.9,0.3-4.1,0.8c-1,0.4-1.7,0.9-1.9,2
				c-0.4,2.6,1.2,5.4,3.7,6.2C24,36.4,24.3,35.2,23.6,34.9L23.6,34.9z"/>
		</g>
	</g>
	<g>
		<g>
			<path d="M23.3,36.1c0,1.7,0,3.5,0.1,5.2c0,0.8,1.3,0.8,1.3,0c0-1.7,0-3.5-0.1-5.2C24.6,35.3,23.3,35.2,23.3,36.1L23.3,36.1z"/>
		</g>
	</g>
	<g>
		<g>
			<path d="M5.9,20.4C6.6,26.7,7,33,7.4,39.3c0.1,2.4-1.1,7.3,2.1,7.9c5.4,1,12,0,17.5,0c4.2,0,10.5,1.1,14.3-1.1
				c2-1.2,0.8-8.7,0.8-10.6c0-3.3,0-6.5,0-9.8c0-2.4,0.5-4.6-1-6.6c-0.4-0.5-1.1-0.5-1.7-0.5c-3.8-0.1-7.6-0.3-11.5-0.3
				c-7-0.1-14,0.1-21,0.8c-0.8,0.1-0.8,1.3,0,1.3c8.9-1,17.8-0.9,26.7-0.7c1.6,0,6.8-0.4,7.1,2.1s0,5.3,0,7.9
				c0,4.5,0.1,8.9-0.1,13.4c-0.2,4.5-10.9,3-13.8,3c-4.5,0-9,0-13.5,0c-2.7,0-4.6,0.2-4.7-2.9c-0.1-2.5-0.2-5.1-0.4-7.6
				c-0.3-5-0.7-10.1-1.2-15.1C7.1,19.6,5.8,19.6,5.9,20.4L5.9,20.4z"/>
		</g>
	</g>
	<g>
		<g>
			<path d="M13,18.8c0.2-7.6,1.6-16,10.8-16.8c8.8-0.7,11.2,9.8,11.4,16.4c0,0.8,1.3,0.8,1.3,0c-0.3-6.9-2.6-17.2-11.3-17.6
				c-10.6-0.5-13.2,9.3-13.4,18C11.8,19.6,13,19.6,13,18.8L13,18.8z"/>
		</g>
	</g>
</g>
</svg>
