<?xml version="1.0" encoding="utf-8"?>
<!-- Generator: Adobe Illustrator 21.0.0, SVG Export Plug-In . SVG Version: 6.00 Build 0)  -->
<svg version="1.1" id="Layer_1" xmlns="http://www.w3.org/2000/svg" xmlns:xlink="http://www.w3.org/1999/xlink" x="0px" y="0px"
	 viewBox="0 0 48 60" style="enable-background:new 0 0 48 60;" xml:space="preserve">
<g>
	<g>
		<g>
			<path d="M12.8,18.3C11.5,11.1,13.2,4.4,21,2.2c6.8-2,12.9,3.9,13.5,10.4c0.1,0.8,1.3,0.8,1.3,0C35.1,5.7,29.2-0.6,21.9,0.7
				c-9.1,1.6-11.8,9.5-10.3,17.8C11.8,19.4,13,19,12.8,18.3L12.8,18.3z"/>
		</g>
	</g>
	<g>
		<g>
			<path d="M5.8,20.3c1.5,7.4,1.5,14.5,1.3,22c-0.1,3.7,0.6,4.6,4,5c6.8,0.6,13.8-0.6,20.5-1.5c1.5-0.2,10.1,0.1,10.6-1.5
				c0.6-2.2,0.3-4.6,0.3-6.9c0-3.9,0-7.9,0.1-11.8c0-1.5,0.4-8.1-1.9-8.3c-2-0.2-4.2,0.4-6.1,0.7c-4.2,0.7-8.3,1.1-12.5,1.1
				c-3.9,0.1-7.8-0.2-11.7-0.5C8,18.4,7.3,18,5.8,19.2c-0.6,0.5,0.3,1.4,0.9,0.9c1.3-1,3.9-0.2,5.3-0.1c2.6,0.2,5.2,0.3,7.8,0.3
				c3.7,0.1,7.6-0.1,11.3-0.6c1.8-0.3,3.6-0.6,5.3-0.9c2.5-1.4,4-0.9,4.4,1.5c0.3,1.7,0.4,3.4,0.3,5.1c0,5.2-0.1,10.5-0.1,15.7
				c0,3.6-10.9,3.4-13.3,3.7c-5,0.7-9.9,1.2-14.9,1.1C6.5,46,8.5,37.4,8.5,33.3c0-4.5-0.7-8.9-1.5-13.3C6.8,19.2,5.6,19.5,5.8,20.3
				L5.8,20.3z"/>
		</g>
	</g>
	<g>
		<g>
			<path d="M23.4,34.5c-1.6-0.5-2.3-1.7-2.7-3.3c-0.6-2.4,2-3.2,3.9-3.3c2-0.1,2.9,2.8,2.6,4.3c-0.4,1.6-2,2.5-3.5,2.7
				c-0.8,0.1-0.8,1.4,0,1.3c2.4-0.3,4.2-1.7,4.8-4.1c0.5-2.2-1.1-4.7-3.2-5.4c-1.3-0.4-2.9,0.3-4.1,0.8c-1,0.4-1.7,0.9-1.9,2
				c-0.4,2.6,1.2,5.4,3.7,6.2C23.9,35.9,24.2,34.7,23.4,34.5L23.4,34.5z"/>
		</g>
	</g>
	<g>
		<g>
			<path d="M23.2,35.6c0,1.7,0,3.5,0.1,5.2c0,0.8,1.3,0.8,1.3,0c0-1.7,0-3.5-0.1-5.2C24.5,34.8,23.2,34.8,23.2,35.6L23.2,35.6z"/>
		</g>
	</g>
</g>
</svg>
